<svg width="300" height="300" viewBox="0 0 300 300" fill="none" xmlns="http://www.w3.org/2000/svg">
<g clip-path="url(#clip0_296_303)">
<path d="M300 150C300 67.1573 232.843 0 150 0C67.1573 0 0 67.1573 0 150C0 232.843 67.1573 300 150 300C232.843 300 300 232.843 300 150Z" fill="#0062D1"/>
<path d="M165.418 98.3885C161.641 95.3883 157.73 93.132 153.686 91.6193C149.605 90.0553 145.409 89.2608 141.097 89.2355C136.802 89.123 132.435 89.7874 127.999 91.2291C123.614 92.6349 119.222 94.8511 114.822 97.8781C106.599 103.536 100.801 110.515 97.4282 118.818C94.1083 127.084 93.4523 136.24 95.4599 146.286C97.431 156.281 102.341 166.785 110.19 177.798C118.038 188.811 126.416 197.007 135.322 202.384C144.228 207.761 153.247 210.338 162.377 210.116C171.471 209.842 180.261 206.786 188.746 200.948C196.446 195.651 202.066 189.791 205.607 183.367C209.163 176.856 210.621 170.139 209.98 163.217C209.393 156.258 206.697 149.408 201.892 142.666L209.521 138.913L168.037 167.453L150.102 142.288L217.436 95.9649L231.63 115.881C241.533 129.776 247.055 143.769 248.201 157.861C249.307 171.902 246.548 185.227 239.923 197.838C233.262 210.397 223.174 221.325 209.66 230.622C194.575 241.001 178.994 246.848 162.917 248.168C146.804 249.436 131.242 246.223 116.233 238.523C101.239 230.739 87.8011 218.51 75.9178 201.836C66.7853 189.022 60.5289 176.3 57.1483 163.67C53.7834 150.953 53.0378 138.734 54.9114 127.015C56.7853 115.295 60.9771 104.473 67.4871 94.5495C73.9971 84.6256 82.5686 76.006 93.2018 68.6909C102.316 62.4209 111.736 57.8956 121.464 55.1149C131.155 52.283 140.725 51.1442 150.175 51.6987C159.678 52.2174 168.697 54.4111 177.23 58.2804C185.728 62.0982 193.314 67.5399 199.989 74.6056L165.418 98.3885Z" fill="white"/>
</g>
<defs>
<clipPath id="clip0_296_303">
<rect width="300" height="300" fill="white"/>
</clipPath>
</defs>
</svg>
